<?xml version="1.0" encoding="UTF-8" standalone="no"?>
<svg
   version="1.1"
   width="516"
   height="516"
   id="svg57"
   sodipodi:docname="ChatGPT Image Aug 11, 2025, 08_20_34 AM.svg"
   inkscape:version="1.4.2 (f4327f4, 2025-05-13)"
   xmlns:inkscape="http://www.inkscape.org/namespaces/inkscape"
   xmlns:sodipodi="http://sodipodi.sourceforge.net/DTD/sodipodi-0.dtd"
   xmlns="http://www.w3.org/2000/svg"
   xmlns:svg="http://www.w3.org/2000/svg">
  <defs
     id="defs57" />
  <sodipodi:namedview
     id="namedview57"
     pagecolor="#ffffff"
     bordercolor="#000000"
     borderopacity="0.25"
     inkscape:showpageshadow="2"
     inkscape:pageopacity="0.0"
     inkscape:pagecheckerboard="0"
     inkscape:deskcolor="#d1d1d1"
     inkscape:zoom="1.53"
     inkscape:cx="246.40523"
     inkscape:cy="207.51634"
     inkscape:window-width="1920"
     inkscape:window-height="1001"
     inkscape:window-x="-9"
     inkscape:window-y="-9"
     inkscape:window-maximized="1"
     inkscape:current-layer="svg57" />
  <path
     d="m 0,0 c 5.1760085,4.2845109 9.8218801,8.8142055 14.375,13.75 l 1.97998,2.130371 C 28.993738,29.50746 28.993738,29.50746 33.9375,35.5625 c 1.827243,2.484004 0.153134,9.550211 -2.75,12.375 l -2.582031,2.527344 c -1.77952,1.731496 -3.575989,3.4457 -5.386719,5.144531 -2.49185,2.271651 -2.49185,2.271651 -2.90625,5.703125 1.633102,8.759365 8.702077,13.962596 15.652344,18.949219 3.587069,2.05437 5.999445,2.777185 10.085937,2.292968 C 52.25217,80.789964 57.439552,75.418955 62,71 l 1,-2 c 3.230487,1.419925 5.382425,3.136194 7.863281,5.632812 l 2.189453,2.195313 2.259766,2.296875 2.224609,2.226562 c 3.426248,3.45361 6.761708,6.941813 9.931641,10.632813 4.719285,5.475264 9.94647,10.442665 15.12305,15.480465 4.01083,3.95359 7.53174,7.68162 10.4082,12.53516 -9.49266,11.53578 -21.001275,20.26339 -33,29 l -2.060059,1.51318 C 56.951972,165.88966 33.821552,179.99682 9.8532715,190.17651 8.1036064,190.95396 6.4221568,191.87995 4.75,192.8125 1.4584443,194.23385 0.40134841,193.9242 -3,193 c -1.7860934,-0.73674 -3.5485586,-1.53231 -5.2890625,-2.37109 l -3.0737305,-1.47461 -3.262207,-1.5918 -3.383301,-1.64258 C -52.551938,169.06069 -84.181704,148.68045 -112,122 l -2.92578,-2.53125 C -117,117 -117,117 -116.8777,114.62215 c 1.06845,-3.19201 2.45629,-4.68339 4.84669,-7.04525 l 2.54787,-2.54695 2.7683,-2.70573 2.82066,-2.803514 c 2.46874,-2.453506 4.94926,-4.894761 7.432449,-7.333633 2.534199,-2.493202 5.057041,-4.997837 7.580872,-7.501526 C -83.93161,79.779132 -78.969823,74.885571 -74,70 c 3.571694,1.676735 5.827508,3.620871 8.589844,6.464844 l 2.626953,2.673828 c 1.809952,1.861925 3.619848,3.723903 5.429687,5.585937 l 2.63086,2.677735 2.382568,2.452881 c 3.219057,2.950382 5.923407,4.93378 10.277588,5.582275 7.670569,-1.095796 13.309877,-8.063317 18,-13.8125 1.660628,-4.102727 2.253291,-7.285533 1.0625,-11.625 -3.188181,-4.270393 -7.026068,-7.786673 -10.9375,-11.375 -1.564676,-1.472042 -3.122867,-2.95047 -4.676895,-4.433746 -1.406341,-1.336515 -2.829064,-2.655728 -4.252548,-3.973969 C -45,48 -45,48 -46,45 -34.58698,33.750587 -23.738749,21.901823 -11.619141,11.394287 -9.1155292,9.2383575 -6.8199828,6.9147048 -4.5,4.5625 l 2.59375,-2.6210938 z"
     fill="#4c4c4c"
     transform="translate(259,285)"
     id="path2"
     sodipodi:nodetypes="cccccccccccccccccccccccccccccccccccccccccccccccccccccc" />
  <path
     d="M 8,3 C 8.1938405,20.185116 8.3451435,34.228646 8.5359917,52.433151 6.9938927,100.47616 13.451755,149.27392 4.1301269,196.85132 -3.3819274,224.38427 -11.144703,254.3559 -32,275 c -3.223952,-1.41539 -5.356668,-3.11415 -7.8125,-5.625 l -1.894531,-1.91406 C -52.94146,254.91225 -64.680739,242.81201 -76.5,230.8125 -78,229 -78,229 -77.898437,226.76172 c 1.170038,-3.5966 3.294821,-5.99522 5.773437,-8.76172 6.759022,-7.37595 6.759022,-7.37595 8.660156,-16.89844 C -64.566363,196.77589 -67.89062,194.03023 -71,191 l -2.398437,-2.46875 c -5.026978,-5.55149 -5.026978,-5.55149 -11.796875,-7.99219 -5.262302,0.63753 -7.216098,3.03561 -10.679688,6.83594 l -1.757812,1.82812 C -100.67896,192.33976 -100.67896,192.33976 -103,196 -117.26307,186.26934 -130.86691,168.05585 -143,155 -138.44981,144.27684 5.75,1.875 8,3 Z"
     fill="#4c4c4c"
     transform="translate(444,84)"
     id="path3"
     sodipodi:nodetypes="cccccccccccccccccc" />
  <path
     d="m 0,0 c 4.2558071,1.6048151 6.8588911,4.8216093 9.8125,8.125 l 1.620605,1.784668 c 3.306873,3.651903 6.570434,7.340765 9.793457,11.066894 C 23.451381,23.515012 25.725033,26.006418 28,28.5 c 2.825774,3.09732 5.632188,6.204042 8.375,9.375 4.575805,5.26325 9.348013,10.347034 14.087402,15.462402 2.374679,2.56773 4.738021,5.145779 7.100098,7.725098 l 1.368896,1.493896 c 2.238212,2.443105 4.474504,4.887933 6.709229,7.334229 14.28642,15.74452 14.28642,15.74452 29.199219,30.886715 1.808337,1.86066 3.481194,3.755 5.164066,5.72657 C 105.0329,112.29493 110.54542,117.61522 116,123 c 12.21059,12.05433 12.21059,12.05433 17.61377,18.38672 1.68748,1.96387 3.47449,3.80178 5.32373,5.61328 l 1.77734,1.75 L 142,150 c -6.62147,7.75196 -13.30702,15.40392 -20.3125,22.8125 C 108.80311,186.43977 108.80311,186.43977 97,201 c -3.585616,-1.51427 -5.821221,-3.61516 -8.519531,-6.39453 l -2.59961,-2.64649 c -1.784024,-1.83577 -3.56788,-3.6717 -5.351562,-5.50781 C 73.814234,179.54147 73.814234,179.54147 66,174 c -3.896926,-1.06012 -24.81272,14.00733 -19.5625,21.75 1.456899,8.41764 9.913233,14.73493 15.786133,20.50635 3.601547,3.54002 7.005735,7.16983 10.276367,11.02099 2.364704,2.71572 4.92333,5.20884 7.5,7.72266 -1.258806,3.60557 -2.581994,5.95126 -5.300537,8.62524 l -2.032944,2.02248 -2.193863,2.13744 -2.256729,2.23668 c -2.377475,2.3541 -4.764878,4.6978 -7.153427,7.04066 -2.38323,2.34812 -4.764295,4.69838 -7.142715,7.05138 -1.479268,1.46234 -2.961608,2.92159 -4.447358,4.37735 l -2.042495,2.01292 -1.791855,1.75771 C 43.928139,274.07625 42.457966,275.97968 41,278 28.842438,273.46482 19.620456,248.88554 14.457031,237.63623 8.5670921,224.45612 4.2331792,211.06455 1,197 l -0.55798531,-2.41782 c -4.26810669,-19.3829 -4.01982159,-38.7502 -3.94638509,-58.47965 0.014048,-4.72217 0.00737,-9.44433 0.00387,-14.16653 -0.00268,-7.89865 0.010609,-15.79715 0.033951,-23.695766 0.0268,-9.132303 0.028285,-18.264353 0.016612,-27.396682 -0.010757,-8.821766 -0.00462,-17.64344 0.00956,-26.465199 0.00576,-3.744007 0.00568,-7.487948 9.346e-4,-11.231956 -0.00475,-4.388304 0.00527,-8.776326 0.026955,-13.164576 0.00558,-1.611728 0.00602,-3.223483 0.00105,-4.835213 -0.00592,-2.192241 0.00649,-4.383614 0.023769,-6.5757767 L -3.3803167,4.8496265 -3,2 Z"
     fill="#4c4c4c"
     transform="translate(70,84)"
     id="path4"
     sodipodi:nodetypes="ccccscccccccsccccccccccccccccccccccccccccccccccccccc" />
  <path
     d="M 0,0 3.4458618,0.96195984 C 7.1474525,2.0005549 10.843392,3.0577364 14.539063,4.1171875 c 1.913532,0.5425136 3.827064,1.0850257 5.74069,1.6272097 16.600745,4.7110638 33.106964,9.6957478 49.509309,15.0602898 l 2.722352,0.889954 c 2.524267,0.828888 5.046163,1.664454 7.566711,2.504578 l 2.192444,0.727218 c 4.401516,1.485497 8.645157,3.185413 12.893493,5.06575 -1.376862,3.196535 -2.862438,4.954042 -5.5625,7.125 -3.117226,2.61777 -5.84353,5.356919 -8.519531,8.421875 C 75.957903,51.295077 70.525464,56.709403 65.039062,62.117187 57.700891,69.283 57.700891,69.283 50.796875,76.859375 45.089545,83.52951 38.655191,89.553748 32.416016,95.719727 26.713452,101.36135 21.062234,106.9615 15.859375,113.07422 c -4.294215,4.8582 -9.0489941,9.30556 -13.6679687,13.85156 -4.3449705,4.30313 -8.5125469,8.67098 -12.4951173,13.31152 -2.028654,2.32345 -4.196505,4.48036 -6.407226,6.62989 -2.952655,2.77893 -5.180378,2.28388 -7.352723,5.62995 -2.741225,-2.95757 -4.5415,-4.27569 -7.459777,-7.56745 -1.068766,-1.18369 -2.13909,-2.36598 -3.210938,-3.54688 l -1.592773,-1.75586 c -2.043966,-2.21462 -4.172135,-4.33504 -6.321289,-6.44726 -2.620829,-2.58339 -5.11289,-5.19974 -7.5,-8 -3.062503,-3.57649 -6.340307,-6.8814 -9.6875,-10.1875 -3.877292,-3.82987 -7.562437,-7.72052 -11.09375,-11.875 -3.026266,-3.373544 -6.278358,-6.517038 -9.501709,-9.70093 -3.35515,-3.329896 -6.501796,-6.763386 -9.564698,-10.365479 -2.344794,-2.623581 -4.836149,-5.088495 -7.339843,-7.558594 -3.094913,-3.053382 -6.119343,-6.123236 -8.937503,-9.4375 -3.49826,-4.105189 -7.31933,-7.846872 -11.15332,-11.633789 -3.39164,-3.366059 -6.58533,-6.831774 -9.6748,-10.479492 -2.8369,-3.188319 -5.93165,-6.114887 -9.01172,-9.066406 -1.72266,-1.882813 -1.72266,-1.882813 -1.72266,-3.882813 10.96912,-4.242526 22.00514,-8.056783 33.25,-11.5 l 2.4332,-0.749206 c 15.617641,-4.793036 31.355101,-9.1306164 47.129303,-13.3757935 l 3.434448,-0.9260254 c 3.256279,-0.8757673 6.514022,-1.7458016 9.772583,-2.6130371 l 2.91542,-0.7812805 C -24.687086,-2.7067148 -14.294556,-4.1052369 0,0 Z"
     fill="#4c4c4c"
     transform="translate(277.83594,37.007812)"
     id="path5"
     sodipodi:nodetypes="ccccccccccccccccccccccccccccscccccccccccc" />
  <path
     d="m 0,0 c 27.23529,6.0586981 45.073193,23.035414 64.3125,42.1875 l 1.443359,1.434692 c 5.088649,5.067154 10.0424,10.18127 14.71753,15.632935 2.226599,2.544939 4.607005,4.882199 7.026611,7.244873 3.034459,2.989443 6.001711,5.99172 8.75,9.25 4.0994,4.815795 8.64495,9.195638 13.15723,13.620117 3.14714,3.104501 6.17583,6.24835 9.06152,9.598633 3.64191,4.22364 7.55159,8.12783 11.53125,12.03125 4.63872,4.54986 9.07556,9.17014 13.31641,14.09375 2.59533,2.93857 5.38065,5.66754 8.18359,8.40625 3.43038,3.3878 6.82284,6.75222 9.9375,10.4375 3.83611,4.52834 8.08831,8.64038 12.32593,12.78882 2.95694,2.91371 5.78758,5.86843 8.48657,9.02368 4.62905,5.36268 9.70905,10.28 14.75,15.25 10.66023,10.51019 10.66023,10.51019 14.28125,14.78125 5.65922,6.6159 12.0351,12.5996 18.21875,18.71875 15.31995,15.16017 15.31995,15.16017 20.13062,20.94238 3.39742,3.86443 7.36769,6.91503 11.68188,9.68262 2.74952,1.91827 3.38153,2.91971 4.6875,5.875 10.80836,-7.79554 10.80836,-7.79554 19,-18 3.21524,1.40845 5.32184,3.10345 7.75,5.625 0.61359,0.63164 1.22719,1.26328 1.85937,1.91406 0.45891,0.48211 0.91782,0.96422 1.39063,1.46094 -1.58795,3.76697 -3.97552,6.34044 -6.75,9.3125 -1.33611,1.44826 -1.33611,1.44826 -2.69922,2.92578 -0.84176,0.91137 -1.68351,1.82274 -2.55078,2.76172 -4.24843,4.52475 -4.24843,4.52475 -7,10 h 2 c 1.55962,1.74002 3.0495,3.54303 4.5,5.375 3.10759,3.93983 3.10759,3.93983 6.5,7.625 0.26992,2.68839 0.0874,5.29142 0,8 l 2.8125,-0.25 C 296,288 296,288 297.6875,289.4375 299,292 299,292 299.5625,294.19922 c 0.6324,2.45452 1.21979,4.57273 2.4375,6.80078 2.03997,0.91101 3.85673,1.17607 6.0625,1.48828 C 310,303 310,303 312.4375,305.875 314,309 314,309 314.3125,311.1875 c 0.61657,2.26722 0.61657,2.26722 4.125,3.375 1.17563,0.47437 2.35125,0.94875 3.5625,1.4375 2,3 2,3 2.9375,6 1.04858,2.96069 1.58847,4.16739 4.0625,6 l 2.5,1 c 2.64483,1.05793 3.8038,1.7384 5.5,4 0.26812,0.92813 0.53625,1.85625 0.8125,2.8125 1.45146,3.89602 3.59214,6.97695 7.1875,9.1875 2.02089,-0.25904 2.02089,-0.25904 4,-1 4.58458,-0.60551 7.27186,-0.2381 10.9375,2.5 2.66202,2.57751 3.06579,3.51434 3.9375,7.3125 -0.96443,8.86274 -9.98912,15.49522 -15.875,21.5 -0.67611,0.69416 -1.35223,1.38832 -2.04883,2.10352 -4.53424,4.52544 -9.07589,8.84583 -15.57617,10.08398 -4.22557,-0.88959 -6.54883,-3.47441 -9.1875,-6.75 -1.77235,-4.10439 -2.0616,-8.45493 -0.43359,-12.72949 0.49852,-2.17199 0.49852,-2.17199 -1.27344,-4.0918 -0.75668,-0.72413 -1.51336,-1.44826 -2.29297,-2.19434 -1.2433,-1.21236 -1.2433,-1.21236 -2.51172,-2.44921 -0.88301,-0.83661 -1.76601,-1.67321 -2.67578,-2.53516 -1.7107,-1.64859 -3.41907,-3.2996 -5.125,-4.95313 -0.7657,-0.72864 -1.53141,-1.45728 -2.32031,-2.208 -2.04371,-2.07105 -3.94317,-4.16415 -5.83985,-6.36524 -3.81577,-4.4028 -7.88566,-8.50407 -12.02734,-12.59863 -0.77255,-0.76876 -1.5451,-1.53753 -2.34106,-2.32959 C 271.73346,317.06806 260.04057,304.2225 248,293 l -18.18762,18.18762 c -8.01468,-6.16495 -8.10179,-6.32252 -11.50094,-9.87618 17.12518,-16.34336 5.02602,-4.51947 20.68997,-20.56038 -2.72509,-5.17061 -5.64502,-7.77488 -8.79047,-10.68856 -2.02935,-1.8931 -3.84188,-3.83409 -5.64844,-5.9375 -2.64937,-3.07786 -5.33961,-6.11185 -8.0625,-9.125 -2.65114,-2.93678 -5.2829,-5.88603 -7.875,-8.875 -3.45419,-3.96831 -7.01631,-7.83513 -10.57983,-11.70483 -2.53228,-2.75455 -5.03537,-5.52742 -7.48267,-8.35767 -3.58255,-4.13239 -7.30217,-8.13343 -11.01929,-12.14429 -3.04063,-3.28323 -6.05733,-6.58489 -9.04321,-9.91821 -3.97737,-4.43851 -8.01588,-8.81749 -12.06519,-13.19019 -2.94406,-3.18298 -5.86026,-6.3873 -8.74731,-9.62231 -4.63504,-5.17537 -9.39944,-10.22599 -14.16138,-15.28418 -4.27223,-4.54482 -8.46132,-9.14969 -12.61206,-13.80566 -2.33333,-2.55714 -4.78044,-4.97789 -7.25,-7.40235 -1.72174,-1.75408 -3.31777,-3.57667 -4.91406,-5.44531 -2.9328,-3.40838 -6.05073,-6.59399 -9.25,-9.75 -3.718474,-3.66846 -7.236682,-7.43149 -10.625,-11.40625 C 88.516547,115.46014 86.015543,112.98174 83.5,110.5 80.405085,107.44662 77.380657,104.37676 74.5625,101.0625 71.103562,97.003457 67.34165,93.282711 63.525635,89.562744 60.886263,86.969174 58.395143,84.321346 56,81.5 50.368238,74.989435 44.116065,69.049826 38,63 22.991741,48.154285 22.991741,48.154285 17,41 L 14.523438,38.199219 C 5.4510235,27.592742 -0.97494031,14.299125 0,0 Z"
     fill="#4c4c4c"
     transform="translate(73,45)"
     id="path6"
     style="display:inline"
     sodipodi:nodetypes="ccccccccscccccscsccccccccccccccccccccccccccscccccccccccccccccccsccccccccccccccccccccscccsccc" />
  <path
     d="m 0,0 c -2.3236769,17.427576 -6.6791074,30.799565 -13.0625,40.9375 l -1.461914,2.356934 c -3.542444,5.568184 -7.374242,10.422466 -11.991211,15.150878 -2.014041,2.071042 -3.899319,4.171604 -5.78125,6.359375 -4.3323,4.9874 -9.02873,9.572152 -13.742187,14.195313 -3.143345,3.106935 -6.19593,6.221789 -9.054688,9.59375 -6.338837,7.359375 -13.473483,14.02493 -20.372559,20.85205 -9.123015,8.99595 -9.123015,8.99595 -17.703613,18.50147 -5.046501,5.66048 -10.611498,10.87967 -16.005368,16.20752 -5.56176,5.49976 -11.06549,10.98297 -16.14307,16.94091 -4.08758,4.6288 -8.60862,8.86606 -13.00976,13.19336 -4.24606,4.20273 -8.2816,8.45615 -12.06641,13.08203 -1.7363,1.76165 -3.34716,2.65407 -5.60547,3.62891 -12.2378,-12.05695 -12.2378,-12.05695 -17.46094,-18.25781 -1.58376,-1.79279 -3.2777,-3.3756 -5.03906,-4.99219 L -181,165 c 0.2572,-3.41122 1.67624,-4.98791 4.125,-7.25 2.54557,-2.36961 4.85084,-4.85124 7.11719,-7.48438 4.34875,-5.01396 9.06144,-9.62091 13.79687,-14.26562 3.93098,-3.88544 7.63952,-7.87527 11.2461,-12.0625 2.76369,-3.12254 5.73635,-6.02172 8.71484,-8.9375 4.29918,-4.24957 8.4554,-8.52792 12.36328,-13.14453 1.95572,-2.217106 4.03228,-4.279229 6.13672,-6.35547 2.6627,-2.627075 5.21265,-5.26729 7.625,-8.125 4.14957,-4.850901 8.72697,-9.278502 13.281738,-13.744629 3.095585,-3.053654 6.076703,-6.139519 8.905762,-9.442871 5.29589,-6.141803 11.17812,-11.720686 16.949219,-17.410156 4.571891,-4.532308 8.98169,-9.109104 13.17334,-13.994629 C -44.332963,17.709406 -20.862831,0 0,0 Z"
     fill="#4c4c4c"
     transform="translate(444,38)"
     id="path7"
     sodipodi:nodetypes="cccccccccccccccccccccccscccccc" />
  <path
     d="M0 0 C4.33254684 1.66555329 7.1355536 4.87432024 10.3125 8.125 C10.89136963 8.71104004 11.47023926 9.29708008 12.06665039 9.90087891 C16.21499531 14.12789029 20.19059179 18.4645634 24 23 C25.99720803 25.33572871 27.99849514 27.6679528 30 30 C29.61255615 30.4125 29.2251123 30.825 28.82592773 31.25 C20.39786698 40.15451869 20.39786698 40.15451869 12.25 49.3125 C8.84454451 53.27693177 5.11824975 56.89520288 1.40234375 60.56640625 C-1.22838248 63.23135331 -3.65749615 66.00749541 -6.0625 68.875 C-8 71 -8 71 -10.875 73.625 C-11.37974854 74.09043213 -11.88449707 74.55586426 -12.40454102 75.03540039 C-13.86714342 76.37314933 -15.3529954 77.68534587 -16.83984375 78.99609375 C-19.28410984 82.39508222 -20.14597303 84.29454505 -19.90112305 88.45092773 C-17.79554398 94.40713229 -12.01217846 98.65774845 -7.4375 102.8125 C-5.77725971 104.34197864 -4.12433145 105.87761798 -2.48487854 107.42936707 C-1.00406861 108.82796885 0.49859116 110.20332792 2.00219727 111.57739258 C4 114 4 114 3.93725586 116.1472168 C2.62938588 118.73263625 0.8844389 120.81161934 -1 123 C-4.41177437 122.41956979 -6.00759261 121.34474086 -8.390625 118.8671875 C-9.01396729 118.229021 -9.63730957 117.59085449 -10.27954102 116.93334961 C-10.92979248 116.25409424 -11.58004395 115.57483887 -12.25 114.875 C-13.5957812 113.4968644 -14.94341695 112.12053718 -16.29296875 110.74609375 C-16.93540527 110.09108887 -17.5778418 109.43608398 -18.23974609 108.76123047 C-20.82567541 106.17386652 -23.55494548 103.7885198 -26.34765625 101.4296875 C-29.04528788 99.09556651 -31.50986742 96.5523859 -34 94 C-37.02874459 95.35631828 -39.1251941 96.87646766 -41.46411133 99.22119141 C-42.12192093 99.87592438 -42.77973053 100.53065735 -43.45747375 101.20523071 C-44.15857773 101.9135202 -44.8596817 102.62180969 -45.58203125 103.3515625 C-46.31443527 104.08442474 -47.04683929 104.81728699 -47.80143738 105.57235718 C-49.35119847 107.12513829 -50.89852945 108.68034803 -52.44360352 110.23779297 C-54.78812668 112.60043828 -57.14041748 114.95511735 -59.49414062 117.30859375 C-61.00307417 118.82244833 -62.51155215 120.33675717 -64.01953125 121.8515625 C-64.71456253 122.5477066 -65.40959381 123.24385071 -66.12568665 123.96109009 C-70.06863499 127.94173768 -73.84422302 132.01908122 -77.49716187 136.26791382 C-79.5185272 138.59762511 -81.64140519 140.80989385 -83.8125 143 C-84.56144531 143.763125 -85.31039062 144.52625 -86.08203125 145.3125 C-88 147 -88 147 -90 147 C-90.33 147.99 -90.66 148.98 -91 150 C-92.7421875 151.71875 -92.7421875 151.71875 -94.875 153.5 C-98.60319327 156.57634163 -98.60319327 156.57634163 -102 160 C-101.69579454 161.80869466 -101.69579454 161.80869466 -101 164 C-100.43831494 171.0772317 -100.43831494 171.0772317 -102.75 174.875 C-105.95242293 177.89951054 -107.74645708 178.82450399 -112.125 179.4375 C-120.92058596 178.44444997 -126.88899076 173.92824167 -132.37109375 167.18359375 C-136.4880902 161.66464648 -137.65211511 157.42508903 -137.390625 150.5703125 C-137 148 -137 148 -135.25 144.8125 C-131.47596711 142.70775089 -130.723829 143.101953 -126.625 143.6875 C-122.1157859 143.80687751 -120.44509408 143.3625861 -116.90234375 140.4765625 C-114.44464459 137.88592516 -112.1417662 135.16629224 -109.81640625 132.45703125 C-103.6109824 125.2521131 -96.7610911 118.67673353 -90 112 C-79.969656 102.15477417 -79.969656 102.15477417 -70.5390625 91.74414062 C-67.14181828 87.89421792 -63.30810121 84.42791792 -59.546875 80.9375 C-58.94359375 80.35484375 -58.3403125 79.7721875 -57.71875 79.171875 C-57.17154297 78.6572168 -56.62433594 78.14255859 -56.06054688 77.61230469 C-54.80406099 76.04896519 -54.80406099 76.04896519 -55.10253906 74.04760742 C-56.22470213 71.48732951 -57.64076276 70.01973232 -59.640625 68.06640625 C-60.38183594 67.33486328 -61.12304688 66.60332031 -61.88671875 65.84960938 C-62.66660156 65.09486328 -63.44648438 64.34011719 -64.25 63.5625 C-65.01441406 62.81162109 -65.77882813 62.06074219 -66.56640625 61.28710938 C-68.05240763 59.82805621 -69.54157621 58.37222043 -71.03417969 56.91992188 C-72.58983409 55.40058926 -74.12654289 53.86186035 -75.65625 52.31640625 C-78.95224799 49.05886157 -82.41387284 45.99254059 -85.890625 42.9296875 C-88.4283343 40.64574913 -89.90120552 39.29638343 -91 36 C-89.78515625 34.17578125 -89.78515625 34.17578125 -88.0625 32.3125 C-87.49660156 31.68988281 -86.93070313 31.06726563 -86.34765625 30.42578125 C-85.68056641 29.72001953 -85.68056641 29.72001953 -85 29 C-81.14731271 30.56600636 -78.86811704 33.00109121 -76.04296875 36.0078125 C-75.08604468 37.00463468 -74.12833784 38.0007059 -73.16992188 38.99609375 C-71.67408221 40.55998196 -70.18435932 42.12836505 -68.70776367 43.71044922 C-67.2729511 45.2424118 -65.81662532 46.75101293 -64.35546875 48.2578125 C-63.49590576 49.1667627 -62.63634277 50.07571289 -61.75073242 51.01220703 C-58.26407102 53.53181271 -56.21279908 53.44081644 -52 53 C-48.79959173 51.87403314 -47.17018203 50.29834219 -45.0625 47.6875 C-41.73513 43.74208719 -38.17116206 40.12013754 -34.5 36.5 C-30.37970315 32.42735007 -26.42293218 28.31018742 -22.671875 23.890625 C-19.99343101 20.86173039 -17.08056908 18.07267018 -14.203125 15.234375 C-11.53150907 12.5248638 -9.05098396 9.68354774 -6.57421875 6.796875 C-4.48662489 4.41401353 -2.27363401 2.20473601 0 0 Z "
     fill="#4C4C4C"
     transform="translate(220,244)"
     id="path8" />
  <path
     d="M0 0 C8.58 0 17.16 0 26 0 C26 45.87 26 91.74 26 139 C17.42 139 8.84 139 0 139 C0 93.13 0 47.26 0 0 Z "
     fill="#808080"
     transform="translate(385,173)"
     id="path9" />
  <path
     d="M 8.0049476,7.3366701 C 6.3117017,61.794759 8.1117498,11.08185 7.8761726,102.18762 L -21,102 c -0.09457,-38.234419 -0.430726,-45.461778 0.187614,-82.350553 6.435404,-5.758292 14.144212,-13.4449223 20.21945683,-19.58421336 0,0 -0.26917369,-0.37451003 8.59787677,7.27143646 z"
     fill="#808080"
     transform="translate(259,285)"
     id="path10"
     sodipodi:nodetypes="cccccc" />
  <path
     d="m 0,0 h 27 c 0.135367,24.860509 0.737174,41.988724 1.361638,66.891818 C 27.874066,67.377264 17.691293,75.647117 15.277228,78 11.235605,74.074773 5.7938972,67.412978 -1.0460593,59.606837 -0.24611053,41.356583 -0.45776804,19.791997 0,0 Z"
     fill="#808080"
     transform="translate(238,112)"
     id="path11"
     sodipodi:nodetypes="cccccc" />
  <path
     d="m 0,0 h 25 c 2.960003,66.830279 0.131702,22.262501 1.692228,55.644366 C 20.048863,63.96543 11.890963,70.795068 4.625,78.5 3.4395393,79.689901 2.2399787,80.867025 1,82 H 0 Z"
     fill="#808080"
     transform="translate(279,82)"
     id="path12"
     sodipodi:nodetypes="ccccccc" />
  <path
     d="M 0,0 H 26 V 68 L 19,62 C 17.450488,60.672191 15.890072,59.356845 14.3125,58.0625 L 12.113281,56.222656 C 10.090769,54.778793 10.090769,54.778793 7.8320312,55.210937 5.7097314,56.12502 4.5836514,57.344364 3,59 l -3,2 z"
     fill="#808181"
     transform="translate(126,203)"
     id="path13"
     sodipodi:nodetypes="cccccccccc" />
  <path
     d="M0 0 C8.25 0 16.5 0 25 0 C25 21.45 25 42.9 25 65 C22.69 63.02 20.38 61.04 18 59 C14.69257439 57.3462872 12.6761184 57.46636991 9 58 C6.63001592 59.92035944 4.64013486 61.9831705 2.6015625 64.25 C2.07304687 64.8275 1.54453125 65.405 1 66 C0.67 66 0.34 66 0 66 C0 44.22 0 22.44 0 0 Z "
     fill="#808080"
     transform="translate(346,207)"
     id="path14" />
  <path
     d="m 0,0 h 26 c 2.206667,19.507736 0.387082,1.1158681 1.671088,25.124668 C 25.664119,27.130417 13.993031,38.005748 12.3125,40.0625 l -1.613281,1.878906 C 7.9430979,45.280431 5.2645629,48.680174 2.6015625,52.09375 L 1,54 H 0 Z"
     fill="#808080"
     transform="translate(166,231)"
     id="path15"
     sodipodi:nodetypes="ccccccccc" />
  <path
     d="M0 0 C0 16.17 0 32.34 0 49 C-5.54166365 44.25000259 -10.72778977 39.45527298 -15.875 34.3125 C-16.64585937 33.55388672 -17.41671875 32.79527344 -18.2109375 32.01367188 C-18.943125 31.28341797 -19.6753125 30.55316406 -20.4296875 29.80078125 C-21.09210449 29.14247314 -21.75452148 28.48416504 -22.43701172 27.8059082 C-24 26 -24 26 -25 23 C-21.76743024 19.71809541 -18.52842394 16.44273543 -15.28320312 13.17333984 C-14.17950702 12.05956877 -13.07761027 10.94401168 -11.97753906 9.82666016 C-10.39854926 8.22348763 -8.81325886 6.62679089 -7.2265625 5.03125 C-6.73378815 4.52815308 -6.24101379 4.02505615 -5.73330688 3.50671387 C-2.22774341 0 -2.22774341 0 0 0 Z "
     fill="#4B4B4B"
     transform="translate(238,307)"
     id="path16" />
  <path
     d="M 0.18761726,-2.6266417 2.3755863,1.6247655 C 8.3077909,9.979203 15.004405,16.334068 25,18 l 0.500938,19 H 0 C 0.76980348,23.956859 -0.52200743,10.826959 0.18761726,-2.6266417 Z"
     fill="#808181"
     transform="translate(279,350)"
     id="path17"
     sodipodi:nodetypes="cccccc" />
  <path
     d="M 0,0 7,6 C -23.814865,37.301197 -9.7264592,24.027137 -37,51 -39.443572,50.054101 -40.724386,49.4969 -42.015625,47.168945 -42,45 -42,45 -40.296875,42.745117 L -37.75,40.296875 -34.964844,37.574219 C -33.97713,36.632217 -32.988845,35.690814 -32,34.75 c 1.89814,-1.83616 3.794016,-3.674664 5.6875,-5.515625 l 2.776855,-2.696533 c 2.790106,-2.792524 5.372788,-5.703233 7.931153,-8.706299 C -12.405533,14.1799 -8.861269,10.860106 -5.3671875,7.4941406 -1.9909512,4.2100494 -1.9909512,4.2100494 0,0 Z"
     fill="#808080"
     transform="translate(233,256)"
     id="path18"
     sodipodi:nodetypes="ccccccccccccc" />
</svg>
